      %%{init: { 'fontFamily': 'Space-Notorious-rounded', 'fontSize': '32px' } }%%
      %%{init: {
      "flowchart": {"nodeSpacing": 200, "rankSpacing": 300, "useMaxWidth": "true", "htmlLabels": "true", "curve": 'cardinal'},
      "securityLevel": "loose",
      "themeVariables": { 'primaryColor': '#443334ff',
                          'primaryTextColor': '#fff',
                          'primaryBorderColor': '#7C0000',
                          'lineColor': '#F8B229',
                          'secondaryColor': '#006100'},
  "theme": "darkmode",
    "themeCSS": ".extension;.divider { display: none; };"
    
}}%%
erDiagram
    CUSTOMER ||--o{ ORDER : places
    ORDER ||--|{ ORDER_ITEM : contains
    PRODUCT ||--o{ ORDER_ITEM : includes
    CUSTOMER {
        string id
        string name
        string email
    }
    ORDER {
        string id
        date orderDate
        string status
    }
    PRODUCT {
        string id
        string name
        float price
    }
    ORDER_ITEM {
        int quantity
        float price
    }